<svg xmlns="http://www.w3.org/2000/svg" version="1.1" xmlns:xlink="http://www.w3.org/1999/xlink" xmlns:svgjs="http://svgjs.com/svgjs" width="1000" height="1000"><rect width="1000" height="1000" rx="200" ry="200" fill="#ffffff"></rect><g transform="matrix(10,0,0,10,0,0)"><svg xmlns="http://www.w3.org/2000/svg" version="1.1" xmlns:xlink="http://www.w3.org/1999/xlink" xmlns:svgjs="http://svgjs.com/svgjs" width="100" height="100"><svg width="100" height="100" viewBox="0 0 100 100" fill="none" xmlns="http://www.w3.org/2000/svg">
<path d="M35.1261 80C30.4202 80 26.7227 78.6978 24.0336 76.0935C21.3445 73.4891 20 70.0167 20 65.6761C20 61.9366 20.7731 58.8982 22.3193 56.5609C23.8655 54.1569 25.916 52.2538 28.4706 50.8514C31.0924 49.3823 33.9496 48.2805 37.042 47.5459L43.4958 45.9432V38.03C43.4958 35.6928 43.1933 33.99 42.5882 32.9215C41.9832 31.8531 40.9412 31.3189 39.4622 31.3189C38.4538 31.3189 37.6134 31.6194 36.9412 32.2204C36.3361 32.7546 35.8655 33.6561 35.5294 34.9249C35.1933 36.1937 35.0252 37.8965 35.0252 40.0334L20.2017 39.6327C20.2017 33.4224 21.6807 28.6144 24.6387 25.2087C27.5966 21.7362 32.1345 20 38.2521 20C42.2185 20 45.3109 20.8681 47.5294 22.6043C49.7479 24.3406 51.0252 26.4441 51.3613 28.9149H49.6471C49.916 27.2454 50.7227 25.7429 52.0672 24.4073C53.4118 23.0718 55.1597 22.0033 57.3109 21.202C59.4622 20.4007 61.8487 20 64.4706 20C69.7815 20 73.6807 21.3022 76.1681 23.9065C78.7227 26.5108 80 29.8164 80 33.823C80 37.1619 79.3277 39.833 77.9832 41.8364C76.6387 43.8397 74.8235 45.409 72.5378 46.5442C70.2521 47.6127 67.6975 48.4808 64.874 49.1486L58.1177 50.6511V62.3706C58.1177 64.374 58.3529 66.01 58.8235 67.2788C59.2941 68.4808 60.3025 69.0818 61.8487 69.0818C62.9244 69.0818 63.6975 68.7813 64.1681 68.1803C64.7059 67.5793 65.042 66.778 65.1765 65.7763C65.3782 64.7078 65.479 63.5058 65.479 62.1703V58.6644H79.6975V62.8714C79.6975 66.4775 79.0924 69.5826 77.8824 72.187C76.6723 74.7245 74.8571 76.6611 72.437 77.9967C70.0168 79.3322 66.9916 80 63.3613 80C61.2101 80 59.1597 79.6327 57.2101 78.8982C55.2605 78.0968 53.6134 76.9616 52.2689 75.4925C50.9244 73.9566 50.0504 72.1202 49.6471 69.9833C48.9076 72.1202 47.7983 73.9566 46.3193 75.4925C44.9076 76.9616 43.2269 78.0968 41.2773 78.8982C39.395 79.6327 37.3445 80 35.1261 80ZM38.5546 69.5826C39.6303 69.5826 40.5042 69.3489 41.1765 68.8815C41.916 68.3472 42.4874 67.5793 42.8908 66.5776C43.2941 65.576 43.4958 64.2738 43.4958 62.6711V52.9549L40.0672 54.3573C38.5882 54.9583 37.3782 55.6928 36.437 56.5609C35.4958 57.3623 34.7899 58.3305 34.3193 59.4658C33.916 60.5342 33.7143 61.803 33.7143 63.2721C33.7143 64.4741 33.8824 65.5426 34.2185 66.4775C34.5546 67.4124 35.0588 68.1803 35.7311 68.7813C36.4706 69.3155 37.4118 69.5826 38.5546 69.5826ZM58.0168 43.5392L60.437 43.0384C62.7899 42.571 64.5042 41.8364 65.5798 40.8347C66.6555 39.7663 67.1933 38.197 67.1933 36.1269C67.1933 34.7245 66.8571 33.5559 66.1849 32.621C65.5126 31.6861 64.4034 31.2187 62.8571 31.2187C61.7143 31.2187 60.7731 31.4858 60.0336 32.02C59.3613 32.5543 58.8571 33.2888 58.521 34.2237C58.1849 35.1586 58.0168 36.3606 58.0168 37.8297V43.5392Z" fill="#3F3A62"></path>
</svg></svg></g></svg>